<?xml version="1.0" standalone="no"?>
<!DOCTYPE svg PUBLIC "-//W3C//DTD SVG 20010904//EN"
 "http://www.w3.org/TR/2001/REC-SVG-20010904/DTD/svg10.dtd">
<svg version="1.0" xmlns="http://www.w3.org/2000/svg"
 width="512.000000pt" height="512.000000pt" viewBox="0 0 512.000000 512.000000"
 preserveAspectRatio="xMidYMid meet">

<g transform="translate(0.000000,512.000000) scale(0.100000,-0.100000)"
fill="#000000" stroke="none">
<path d="M2370 5060 c-618 -49 -1179 -308 -1616 -744 -658 -658 -907 -1607
-659 -2511 204 -743 751 -1367 1468 -1675 65 -27 145 -58 177 -67 55 -15 62
-15 105 1 77 30 80 42 76 316 -1 129 -4 236 -5 237 -1 1 -19 -2 -41 -8 -22 -5
-94 -12 -160 -16 -224 -11 -396 47 -528 178 -59 59 -76 85 -132 203 -91 192
-158 283 -255 349 -114 76 -149 136 -92 158 43 17 132 13 189 -9 125 -48 206
-117 295 -252 105 -160 221 -241 374 -263 87 -13 191 -1 296 33 l67 22 15 72
c21 91 64 182 110 234 l37 40 -28 6 c-15 3 -62 10 -103 16 -690 106 -1030 512
-1030 1231 0 268 68 473 216 655 l45 54 -15 45 c-52 151 -48 354 11 547 24 82
28 88 57 93 109 21 355 -68 587 -211 l89 -55 112 25 c200 44 271 51 528 51
257 0 328 -7 527 -51 l113 -25 98 60 c225 139 469 226 576 205 32 -5 35 -9 60
-92 14 -48 31 -121 37 -162 15 -101 6 -277 -20 -365 l-20 -70 29 -30 c90 -96
177 -277 211 -440 22 -104 25 -317 8 -460 -24 -199 -101 -422 -188 -549 -48
-69 -139 -164 -209 -217 -160 -121 -420 -215 -672 -244 -86 -10 -86 -11 -46
-55 45 -49 79 -118 108 -212 21 -70 22 -94 26 -522 4 -507 2 -493 77 -521 55
-21 89 -14 250 51 1050 429 1700 1517 1580 2645 -34 320 -114 597 -255 881
-382 768 -1116 1293 -1960 1402 -149 19 -387 27 -520 16z"/>
</g>
</svg>
