<?xml version="1.0" standalone="no"?>
<!DOCTYPE svg PUBLIC "-//W3C//DTD SVG 20010904//EN"
 "http://www.w3.org/TR/2001/REC-SVG-20010904/DTD/svg10.dtd">
<svg version="1.0" xmlns="http://www.w3.org/2000/svg"
 width="512.000000pt" height="375.000000pt" viewBox="0 0 512.000000 375.000000"
 preserveAspectRatio="xMidYMid meet">

<g transform="translate(0.000000,375.000000) scale(0.100000,-0.100000)"
fill="#000000" stroke="none">
<path d="M393 3736 c-183 -45 -344 -210 -382 -394 -16 -75 -16 -2859 0 -2934
39 -189 208 -358 397 -397 75 -16 4229 -16 4304 0 192 40 361 212 398 404 8
43 10 456 8 1495 l-3 1435 -22 60 c-64 168 -214 300 -381 334 -81 17 -4249 14
-4319 -3z m4358 -189 c67 -32 141 -108 172 -174 l22 -48 0 -1450 0 -1450 -22
-48 c-31 -66 -105 -142 -172 -174 l-56 -28 -2135 0 -2135 0 -56 28 c-67 32
-141 108 -172 174 l-22 48 0 1450 0 1450 28 56 c45 92 135 165 232 190 17 4
982 6 2145 6 l2115 -2 56 -28z"/>
<path d="M3615 3387 c-39 -33 -39 -91 -1 -123 23 -21 38 -24 99 -24 75 1 95 9
115 47 19 35 14 63 -17 94 -27 27 -35 29 -100 29 -58 0 -74 -4 -96 -23z"/>
<path d="M4040 3381 c-32 -31 -37 -59 -18 -94 24 -46 29 -46 316 -47 l272 0 0
-60 c0 -51 4 -65 25 -85 36 -37 86 -34 120 7 26 31 27 37 23 114 -4 71 -8 87
-32 118 -55 72 -47 71 -378 74 l-298 3 -30 -30z"/>
<path d="M575 3126 c-60 -28 -97 -66 -124 -126 -19 -41 -21 -65 -21 -276 l0
-232 28 -53 c31 -60 96 -111 164 -130 25 -6 122 -9 257 -7 237 3 250 6 319 72
72 67 77 86 80 334 3 182 1 231 -12 270 -22 65 -66 115 -128 146 -51 26 -54
26 -282 26 -222 0 -233 -1 -281 -24z m490 -152 c38 -15 45 -55 45 -254 l0
-192 -29 -29 -29 -29 -192 0 c-193 0 -220 4 -247 39 -9 11 -12 75 -13 219 0
272 -20 252 249 252 110 0 207 -3 216 -6z"/>
<path d="M539 1761 c-38 -38 -38 -74 0 -112 l29 -29 242 0 242 0 29 29 c17 18
29 40 29 56 0 16 -12 38 -29 56 l-29 29 -242 0 -242 0 -29 -29z"/>
<path d="M1395 1765 c-17 -16 -25 -35 -25 -60 0 -25 8 -44 25 -60 l24 -25 246
0 246 0 24 25 c15 15 25 36 25 54 0 85 -19 91 -305 91 l-236 0 -24 -25z"/>
<path d="M2265 1778 c-52 -30 -61 -94 -19 -133 l27 -25 243 0 c239 0 243 0
269 23 21 17 27 32 27 62 0 30 -6 45 -27 62 -26 23 -30 23 -263 23 -159 -1
-244 -4 -257 -12z"/>
<path d="M3099 1761 c-17 -18 -29 -40 -29 -56 0 -16 12 -38 29 -56 l29 -29
242 0 242 0 29 29 c17 18 29 40 29 56 0 16 -12 38 -29 56 l-29 29 -242 0 -242
0 -29 -29z"/>
<path d="M3955 1765 c-17 -16 -25 -35 -25 -60 0 -25 8 -44 25 -60 l24 -25 246
0 246 0 24 25 c15 15 25 36 25 54 0 85 -19 91 -305 91 l-236 0 -24 -25z"/>
<path d="M3580 1270 c-115 -25 -241 -123 -294 -231 -102 -211 -13 -465 200
-570 131 -65 315 -48 429 38 l49 38 64 -42 c86 -58 153 -76 261 -71 70 3 99
10 153 35 168 79 255 225 246 413 -3 74 -9 98 -38 156 -117 239 -428 317 -635
159 l-44 -34 -58 38 c-32 22 -80 46 -108 56 -61 20 -165 27 -225 15z m198
-189 c57 -29 94 -70 86 -95 -28 -85 -30 -157 -10 -236 14 -53 14 -56 -7 -79
-55 -60 -168 -86 -262 -60 -63 17 -139 100 -160 173 -50 170 87 337 263 321
30 -3 70 -14 90 -24z m600 0 c87 -44 132 -111 140 -208 18 -223 -233 -356
-413 -219 -43 33 -85 116 -92 179 -19 189 195 335 365 248z"/>
<path d="M2245 1165 c-32 -31 -32 -75 -1 -112 l24 -28 233 -3 c260 -3 283 1
305 54 15 37 11 58 -19 92 -20 22 -24 22 -269 22 l-249 0 -24 -25z"/>
<path d="M535 648 c-32 -38 -29 -81 11 -115 l25 -23 444 0 c270 0 454 4 470
10 34 13 59 69 46 104 -22 57 -15 56 -512 56 l-457 0 -27 -32z"/>
<path d="M1815 648 c-32 -38 -29 -81 11 -115 l25 -23 444 0 c270 0 454 4 470
10 34 13 59 69 46 104 -22 57 -15 56 -512 56 l-457 0 -27 -32z"/>
</g>
</svg>
