<?xml version="1.0" standalone="no"?>
<!DOCTYPE svg PUBLIC "-//W3C//DTD SVG 20010904//EN"
 "http://www.w3.org/TR/2001/REC-SVG-20010904/DTD/svg10.dtd">
<svg version="1.0" xmlns="http://www.w3.org/2000/svg"
 width="512.000000pt" height="512.000000pt" viewBox="0 0 512.000000 512.000000"
 preserveAspectRatio="xMidYMid meet">

<g transform="translate(0.000000,512.000000) scale(0.100000,-0.100000)"
fill="#000000" stroke="none">
<path d="M850 2560 l0 -1280 110 0 110 0 0 1280 0 1280 -110 0 -110 0 0 -1280z"/>
<path d="M1280 2775 l0 -1065 105 0 105 0 0 1065 0 1065 -105 0 -105 0 0
-1065z"/>
<path d="M1710 2775 l0 -1065 210 0 210 0 0 1065 0 1065 -210 0 -210 0 0
-1065z"/>
<path d="M2350 2775 l0 -1065 105 0 105 0 0 1065 0 1065 -105 0 -105 0 0
-1065z"/>
<path d="M2770 2775 l0 -1065 215 0 215 0 0 1065 0 1065 -215 0 -215 0 0
-1065z"/>
<path d="M3410 2775 l0 -1065 110 0 110 0 0 1065 0 1065 -110 0 -110 0 0
-1065z"/>
<path d="M3840 2775 l0 -1065 105 0 105 0 0 1065 0 1065 -105 0 -105 0 0
-1065z"/>
<path d="M4270 2560 l0 -1280 105 0 105 0 0 1280 0 1280 -105 0 -105 0 0
-1280z"/>
<path d="M1280 1385 l0 -105 105 0 105 0 0 105 0 105 -105 0 -105 0 0 -105z"/>
<path d="M1710 1385 l0 -105 105 0 105 0 0 105 0 105 -105 0 -105 0 0 -105z"/>
<path d="M2130 1385 l0 -105 110 0 110 0 0 105 0 105 -110 0 -110 0 0 -105z"/>
<path d="M2560 1385 l0 -105 105 0 105 0 0 105 0 105 -105 0 -105 0 0 -105z"/>
<path d="M2990 1385 l0 -105 105 0 105 0 0 105 0 105 -105 0 -105 0 0 -105z"/>
<path d="M3410 1385 l0 -105 110 0 110 0 0 105 0 105 -110 0 -110 0 0 -105z"/>
<path d="M3840 1385 l0 -105 105 0 105 0 0 105 0 105 -105 0 -105 0 0 -105z"/>
</g>
</svg>
